<svg width="128" height="41" viewBox="0 0 128 41" fill="none" xmlns="http://www.w3.org/2000/svg">
<path d="M7.76258 12.3031V40.107H0V12.3031H7.76258ZM0 8.0214V0H7.76258V8.0214H0Z" fill="#ED7D27"/>
<path d="M13.2198 40.107V15.1214C15.6456 13.9833 21.2519 11.7069 27.0738 11.7069C30.0926 11.7069 32.9497 12.1405 34.9981 13.8749C37.6396 12.7367 41.0357 11.7069 45.0787 11.7069C50.5233 11.7069 54.9437 13.9833 54.9437 21.4085V40.107H47.4506V22.2215C47.4506 18.6985 45.6178 17.5062 43.0303 17.5062C41.3591 17.5062 39.4724 17.8856 37.5857 18.8069C37.6935 19.6199 37.8013 20.4871 37.8013 21.4085V40.107H30.4161V22.2215C30.4161 18.3733 28.3137 17.5062 25.7801 17.5062C23.9473 17.5062 22.2761 17.8856 20.7128 18.6985V40.107H13.2198Z" fill="#ED7D27"/>
<path d="M71.9757 40.8116C63.8358 40.8116 59.4154 37.0177 59.4154 26.3406C59.4154 15.6634 64.1053 11.8153 72.2991 11.8153C80.8164 11.8153 85.1289 15.555 85.1289 26.2864C85.1289 36.9093 80.5469 40.8116 71.9757 40.8116ZM72.2991 17.6688C69.0647 17.6688 66.8545 19.0237 66.8545 26.3406C66.8545 33.2238 69.0647 35.0123 72.2452 35.0123C75.4796 35.0123 77.6359 33.2238 77.6359 26.3406C77.6359 19.0237 75.5335 17.6688 72.2991 17.6688Z" fill="#ED7D27"/>
<path d="M97.2024 2.11375V13.0077C99.736 12.3031 102.27 11.8153 104.588 11.8153C110.949 11.8153 115.854 15.1214 115.854 24.8772C115.854 34.8497 111.919 40.8116 101.731 40.8116C97.3641 40.8116 92.0812 39.8902 89.7093 38.9688V2.11375H97.2024ZM97.2024 18.6985V34.4162C98.2266 34.6329 99.3047 34.7955 100.545 34.7955C106.528 34.7955 108.038 31.0016 108.038 26.0154C108.038 19.7825 105.558 17.723 102.108 17.723C100.599 17.723 98.9813 17.9398 97.2024 18.6985Z" fill="#ED7D27"/>
<path d="M128 12.3031V40.107H120.237V12.3031H128ZM120.237 8.0214V0H128V8.0214H120.237Z" fill="#ED7D27"/>
</svg>
